<?xml version="1.0" encoding="utf-8"?>
<!-- Generator: Adobe Illustrator 21.0.0, SVG Export Plug-In . SVG Version: 6.00 Build 0)  -->
<svg version="1.1" id="Слой_1" xmlns="http://www.w3.org/2000/svg" xmlns:xlink="http://www.w3.org/1999/xlink" x="0px" y="0px"
	 viewBox="0 0 1920 12628.5" style="enable-background:new 0 0 1920 12628.5;" xml:space="preserve">
<style type="text/css">
	.st0{fill:#FFFFFF;}
</style>
<path class="st0" d="M1920,12628.5H0c0.3-330,0.7-12148.4,1-12478.4c55.2-13.9,109.4-45.7,167-63c207.9-62.7,483.4-111.6,753-74
	l336,45c105.6,18.8,218.7,35.4,337,36c59.3,0.3,121.5,3.3,176-5c32.3-6,64.7-12,97-18c16.2-3.1,16.9-3.2,30.2-6.9
	c9.2-2.8,9.2-2.8,15.8-5.1c2.3-1,4.7-2,7-3V12628.5z"/>
</svg>
