<?xml version="1.0" encoding="utf-8"?>
<!-- Generator: Adobe Illustrator 21.0.0, SVG Export Plug-In . SVG Version: 6.00 Build 0)  -->
<svg version="1.1" id="Слой_1" xmlns="http://www.w3.org/2000/svg" xmlns:xlink="http://www.w3.org/1999/xlink" x="0px" y="0px"
	 viewBox="0 0 1920 8026" style="enable-background:new 0 0 1920 8026;" xml:space="preserve">
<style type="text/css">
	.st0{fill:#FFFFFF;}
</style>
<path class="st0" d="M1920,8026c-639.9,0-1280.1,0-1920,0C0.3,7696,0.7,480.1,1,150.1c55.2-13.9,109.4-45.7,167-63
	c207.9-62.7,483.4-111.6,753-74c112,15,224,30,336,45c105.6,18.8,218.7,35.4,337,36c59.3,0.3,121.5,3.3,176-5c32.3-6,64.7-12,97-18
	c16.2-3.1,16.9-3.2,30.2-6.9c9.2-2.8,9.2-2.8,15.8-5.1c2.3-1,4.7-2,7-3C1920,417.4,1920,7664.7,1920,8026z"/>
</svg>
